dataset
version=1
nRows=22
nColumns=39
inDegrees=no
endheader
time	sternoclavicular_r2	sternoclavicular_r3	unrotscap_r3	unrotscap_r2	acromioclavicular_r2	acromioclavicular_r3	acromioclavicular_r1	unrothum_r1	unrothum_r3	unrothum_r2	elv_angle	shoulder_elv	shoulder1_r2	shoulder_rot	elbow_flexion	pro_sup	deviation	flexion	cmc_abduction	cmc_flexion	mp_flexion	ip_flexion	mcp2_flexion	mcp2_abduction	pm2_flexion	md2_flexion	mcp3_flexion	mcp3_abduction	pm3_flexion	md3_flexion	mcp4_flexion	mcp4_abduction	pm4_flexion	md4_flexion	mcp5_flexion	mcp5_abduction	pm5_flexion	md5_flexion
7.410000	-0.040830	-0.413535	0.235531	0.183910	0.157851	0.131442	-0.192361	0.004097	0.008522	0.203841	0.188693	0.027437	0.146525	0.146525	1.442134	1.302093	0.000000	0.000000	0.000000	0.000000	0.000000	0.000000	0.000000	0.000000	0.000000	0.000000	0.000000	0.000000	0.000000	0.000000	0.000000	0.000000	0.000000	0.000000	0.000000	0.000000	0.000000	0.000000
7.415000	-0.040827	-0.413627	0.235782	0.183841	0.157757	0.131537	-0.192596	0.004081	0.008424	0.203729	0.188557	0.027437	0.146525	0.146525	1.442555	1.302008	0.000000	0.000000	0.000000	0.000000	0.000000	0.000000	0.000000	0.000000	0.000000	0.000000	0.000000	0.000000	0.000000	0.000000	0.000000	0.000000	0.000000	0.000000	0.000000	0.000000	0.000000	0.000000
7.420000	-0.040825	-0.413720	0.236037	0.183773	0.157666	0.131634	-0.192833	0.004066	0.008327	0.203619	0.188423	0.027437	0.146525	0.146525	1.442971	1.301925	0.000000	0.000000	0.000000	0.000000	0.000000	0.000000	0.000000	0.000000	0.000000	0.000000	0.000000	0.000000	0.000000	0.000000	0.000000	0.000000	0.000000	0.000000	0.000000	0.000000	0.000000	0.000000
7.425000	-0.040822	-0.413814	0.236294	0.183708	0.157576	0.131733	-0.193072	0.004050	0.008232	0.203510	0.188291	0.027437	0.146525	0.146525	1.443380	1.301842	0.000000	0.000000	0.000000	0.000000	0.000000	0.000000	0.000000	0.000000	0.000000	0.000000	0.000000	0.000000	0.000000	0.000000	0.000000	0.000000	0.000000	0.000000	0.000000	0.000000	0.000000	0.000000
7.430000	-0.040820	-0.413908	0.236554	0.183645	0.157487	0.131833	-0.193314	0.004035	0.008138	0.203402	0.188160	0.027437	0.146525	0.146525	1.443784	1.301760	0.000000	0.000000	0.000000	0.000000	0.000000	0.000000	0.000000	0.000000	0.000000	0.000000	0.000000	0.000000	0.000000	0.000000	0.000000	0.000000	0.000000	0.000000	0.000000	0.000000	0.000000	0.000000
7.435000	-0.040819	-0.414003	0.236817	0.183584	0.157401	0.131935	-0.193557	0.004019	0.008045	0.203296	0.188031	0.027437	0.146525	0.146525	1.444182	1.301679	0.000000	0.000000	0.000000	0.000000	0.000000	0.000000	0.000000	0.000000	0.000000	0.000000	0.000000	0.000000	0.000000	0.000000	0.000000	0.000000	0.000000	0.000000	0.000000	0.000000	0.000000	0.000000
7.440000	-0.040817	-0.414098	0.237082	0.183525	0.157317	0.132040	-0.193803	0.004004	0.007954	0.203191	0.187904	0.027437	0.146525	0.146525	1.444575	1.301599	0.000000	0.000000	0.000000	0.000000	0.000000	0.000000	0.000000	0.000000	0.000000	0.000000	0.000000	0.000000	0.000000	0.000000	0.000000	0.000000	0.000000	0.000000	0.000000	0.000000	0.000000	0.000000
7.445000	-0.040816	-0.414193	0.237349	0.183469	0.157234	0.132145	-0.194050	0.003988	0.007865	0.203088	0.187779	0.027437	0.146525	0.146525	1.444964	1.301519	0.000000	0.000000	0.000000	0.000000	0.000000	0.000000	0.000000	0.000000	0.000000	0.000000	0.000000	0.000000	0.000000	0.000000	0.000000	0.000000	0.000000	0.000000	0.000000	0.000000	0.000000	0.000000
7.450000	-0.040816	-0.414289	0.237619	0.183415	0.157153	0.132253	-0.194298	0.003973	0.007777	0.202987	0.187656	0.027437	0.146525	0.146525	1.445348	1.301440	0.000000	0.000000	0.000000	0.000000	0.000000	0.000000	0.000000	0.000000	0.000000	0.000000	0.000000	0.000000	0.000000	0.000000	0.000000	0.000000	0.000000	0.000000	0.000000	0.000000	0.000000	0.000000
7.455000	-0.040815	-0.414386	0.237891	0.183363	0.157075	0.132362	-0.194548	0.003958	0.007691	0.202887	0.187535	0.027437	0.146525	0.146525	1.445728	1.301362	0.000000	0.000000	0.000000	0.000000	0.000000	0.000000	0.000000	0.000000	0.000000	0.000000	0.000000	0.000000	0.000000	0.000000	0.000000	0.000000	0.000000	0.000000	0.000000	0.000000	0.000000	0.000000
7.460000	-0.040815	-0.414482	0.238164	0.183313	0.156998	0.132473	-0.194799	0.003943	0.007606	0.202789	0.187416	0.027437	0.146525	0.146525	1.446105	1.301285	0.000000	0.000000	0.000000	0.000000	0.000000	0.000000	0.000000	0.000000	0.000000	0.000000	0.000000	0.000000	0.000000	0.000000	0.000000	0.000000	0.000000	0.000000	0.000000	0.000000	0.000000	0.000000
7.465000	-0.040815	-0.414579	0.238439	0.183266	0.156924	0.132585	-0.195052	0.003929	0.007523	0.202693	0.187300	0.027437	0.146525	0.146525	1.446480	1.301208	0.000000	0.000000	0.000000	0.000000	0.000000	0.000000	0.000000	0.000000	0.000000	0.000000	0.000000	0.000000	0.000000	0.000000	0.000000	0.000000	0.000000	0.000000	0.000000	0.000000	0.000000	0.000000
7.470000	-0.040816	-0.414676	0.238715	0.183221	0.156851	0.132699	-0.195305	0.003915	0.007441	0.202598	0.187185	0.027437	0.146525	0.146525	1.446851	1.301132	0.000000	0.000000	0.000000	0.000000	0.000000	0.000000	0.000000	0.000000	0.000000	0.000000	0.000000	0.000000	0.000000	0.000000	0.000000	0.000000	0.000000	0.000000	0.000000	0.000000	0.000000	0.000000
7.475000	-0.040817	-0.414773	0.238993	0.183179	0.156781	0.132814	-0.195558	0.003901	0.007361	0.202506	0.187073	0.027437	0.146525	0.146525	1.447221	1.301056	0.000000	0.000000	0.000000	0.000000	0.000000	0.000000	0.000000	0.000000	0.000000	0.000000	0.000000	0.000000	0.000000	0.000000	0.000000	0.000000	0.000000	0.000000	0.000000	0.000000	0.000000	0.000000
7.480000	-0.040818	-0.414870	0.239272	0.183138	0.156713	0.132930	-0.195813	0.003888	0.007284	0.202415	0.186964	0.027437	0.146525	0.146525	1.447590	1.300981	0.000000	0.000000	0.000000	0.000000	0.000000	0.000000	0.000000	0.000000	0.000000	0.000000	0.000000	0.000000	0.000000	0.000000	0.000000	0.000000	0.000000	0.000000	0.000000	0.000000	0.000000	0.000000
7.485000	-0.040819	-0.414968	0.239551	0.183101	0.156647	0.133047	-0.196067	0.003875	0.007207	0.202327	0.186857	0.027437	0.146525	0.146525	1.447959	1.300906	0.000000	0.000000	0.000000	0.000000	0.000000	0.000000	0.000000	0.000000	0.000000	0.000000	0.000000	0.000000	0.000000	0.000000	0.000000	0.000000	0.000000	0.000000	0.000000	0.000000	0.000000	0.000000
7.490000	-0.040821	-0.415065	0.239831	0.183065	0.156584	0.133166	-0.196322	0.003863	0.007133	0.202240	0.186752	0.027437	0.146525	0.146525	1.448327	1.300832	0.000000	0.000000	0.000000	0.000000	0.000000	0.000000	0.000000	0.000000	0.000000	0.000000	0.000000	0.000000	0.000000	0.000000	0.000000	0.000000	0.000000	0.000000	0.000000	0.000000	0.000000	0.000000
7.495000	-0.040823	-0.415162	0.240112	0.183033	0.156522	0.133286	-0.196577	0.003851	0.007061	0.202155	0.186650	0.027437	0.146525	0.146525	1.448696	1.300758	0.000000	0.000000	0.000000	0.000000	0.000000	0.000000	0.000000	0.000000	0.000000	0.000000	0.000000	0.000000	0.000000	0.000000	0.000000	0.000000	0.000000	0.000000	0.000000	0.000000	0.000000	0.000000
7.500000	-0.040825	-0.415259	0.240393	0.183002	0.156463	0.133406	-0.196831	0.003840	0.006990	0.202073	0.186550	0.027437	0.146525	0.146525	1.449066	1.300685	0.000000	0.000000	0.000000	0.000000	0.000000	0.000000	0.000000	0.000000	0.000000	0.000000	0.000000	0.000000	0.000000	0.000000	0.000000	0.000000	0.000000	0.000000	0.000000	0.000000	0.000000	0.000000
7.505000	-0.040828	-0.415355	0.240674	0.182974	0.156406	0.133528	-0.197085	0.003829	0.006922	0.201992	0.186453	0.027437	0.146525	0.146525	1.449438	1.300612	0.000000	0.000000	0.000000	0.000000	0.000000	0.000000	0.000000	0.000000	0.000000	0.000000	0.000000	0.000000	0.000000	0.000000	0.000000	0.000000	0.000000	0.000000	0.000000	0.000000	0.000000	0.000000
7.510000	-0.040831	-0.415452	0.240955	0.182949	0.156352	0.133650	-0.197339	0.003819	0.006856	0.201914	0.186359	0.027437	0.146525	0.146525	1.449813	1.300539	0.000000	0.000000	0.000000	0.000000	0.000000	0.000000	0.000000	0.000000	0.000000	0.000000	0.000000	0.000000	0.000000	0.000000	0.000000	0.000000	0.000000	0.000000	0.000000	0.000000	0.000000	0.000000
7.515000	-0.040834	-0.415547	0.241236	0.182926	0.156300	0.133773	-0.197592	0.003809	0.006791	0.201837	0.186267	0.027437	0.146525	0.146525	1.450191	1.300466	0.000000	0.000000	0.000000	0.000000	0.000000	0.000000	0.000000	0.000000	0.000000	0.000000	0.000000	0.000000	0.000000	0.000000	0.000000	0.000000	0.000000	0.000000	0.000000	0.000000	0.000000	0.000000
